<?xml version="1.0" standalone="no"?><!DOCTYPE svg PUBLIC "-//W3C//DTD SVG 1.1//EN" "http://www.w3.org/Graphics/SVG/1.1/DTD/svg11.dtd"><svg t="1735530644506" class="icon" viewBox="0 0 1024 1024" version="1.1" xmlns="http://www.w3.org/2000/svg" p-id="3327" xmlns:xlink="http://www.w3.org/1999/xlink" width="200" height="200"><path d="M512 1024a512 512 0 1 1 512-512 512 512 0 0 1-512 512z m0-930.909091a418.909091 418.909091 0 1 0 418.909091 418.909091 418.909091 418.909091 0 0 0-418.909091-418.909091z m-12.567273 488.215273a362.542545 362.542545 0 0 1 57.716364-47.150546 418.909091 418.909091 0 0 0 64.698182-53.76 174.266182 174.266182 0 0 0 30.72-47.848727 148.945455 148.945455 0 0 0 10.705454-57.111273 112.128 112.128 0 0 0-37.236363-89.041454 145.454545 145.454545 0 0 0-100.072728-32.349091 225.745455 225.745455 0 0 0-124.276363 35.746909v78.522182a156.392727 156.392727 0 0 1 104.261818-43.613091A52.922182 52.922182 0 0 1 568.32 381.672727a87.831273 87.831273 0 0 1-16.290909 50.082909 265.309091 265.309091 0 0 1-57.716364 54.132364 396.241455 396.241455 0 0 0-65.629091 55.202909 183.156364 183.156364 0 0 0-33.512727 50.874182 149.550545 149.550545 0 0 0-12.101818 60.276364v31.371636h280.669091v-73.355636h-179.2a48.267636 48.267636 0 0 1 14.894545-28.951273z" fill="" p-id="3328"></path></svg>