<?xml version="1.0" standalone="no"?><!DOCTYPE svg PUBLIC "-//W3C//DTD SVG 1.1//EN" "http://www.w3.org/Graphics/SVG/1.1/DTD/svg11.dtd"><svg t="1735530661803" class="icon" viewBox="0 0 1024 1024" version="1.1" xmlns="http://www.w3.org/2000/svg" p-id="4385" xmlns:xlink="http://www.w3.org/1999/xlink" width="200" height="200"><path d="M512 0c282.7264 0 512 229.2224 512 512s-229.2736 511.9488-512 511.9488c-282.8288 0-512-229.1712-512-512C0 229.2736 229.1712 0 512 0z m0 78.7968a433.2032 433.2032 0 1 0 0 866.4064 433.2544 433.2544 0 1 0 0-866.4064zM522.4448 307.2c44.2368 0 80.4864 10.4448 107.52 31.9488 26.4192 21.504 39.936 50.9952 39.936 89.088 0 47.9232-24.576 79.872-73.1136 95.8464 25.8048 7.9872 46.08 19.6608 59.5968 35.6352 14.7456 16.5888 22.1184 38.0928 22.1184 63.8976 0 40.5504-14.1312 73.728-42.3936 99.5328-29.4912 26.4192-68.1984 39.936-116.1216 39.936-45.4656 0-82.3296-11.6736-109.9776-35.0208-30.72-25.8048-47.9232-63.8976-51.6096-113.0496h73.1136c1.2288 28.2624 9.8304 50.3808 27.0336 65.7408 15.36 14.1312 35.6352 21.504 60.8256 21.504 27.648 0 49.7664-7.9872 65.7408-23.3472 14.1312-14.1312 21.504-31.3344 21.504-52.224 0-25.1904-7.9872-43.6224-22.7328-55.296-14.7456-12.288-36.2496-17.8176-64.512-17.8176h-30.72V499.5072h30.72c25.8048 0 45.4656-5.5296 58.9824-16.5888 12.9024-11.0592 19.6608-27.648 19.6608-49.152 0-21.504-6.144-37.4784-17.8176-48.5376-12.9024-11.0592-31.9488-16.5888-57.1392-16.5888-25.8048 0-45.4656 6.144-59.5968 19.0464-14.7456 12.9024-23.3472 32.5632-25.8048 58.9824h-70.656c3.6864-44.2368 19.6608-78.6432 49.152-103.2192 27.648-24.576 63.2832-36.2496 106.2912-36.2496z" fill="" p-id="4386"></path></svg>