<?xml version="1.0" standalone="no"?><!DOCTYPE svg PUBLIC "-//W3C//DTD SVG 1.1//EN" "http://www.w3.org/Graphics/SVG/1.1/DTD/svg11.dtd"><svg t="1735530339885" class="icon" viewBox="0 0 1024 1024" version="1.1" xmlns="http://www.w3.org/2000/svg" p-id="3147" xmlns:xlink="http://www.w3.org/1999/xlink" width="200" height="200"><path d="M512 1024a512 512 0 1 1 512-512 512 512 0 0 1-512 512z m0-930.909091a418.909091 418.909091 0 1 0 418.909091 418.909091 418.909091 418.909091 0 0 0-418.909091-418.909091z m22.621091 205.312a393.821091 393.821091 0 0 1-129.256727 63.301818v75.543273a205.358545 205.358545 0 0 0 52.084363-13.963636 157.044364 157.044364 0 0 0 44.730182-25.506909v332.474181h88.436364V298.496h-56.180364z" fill="" p-id="3148"></path></svg>